inDegrees=no
num_controls=7
num_derivatives=13
num_iterations=45
num_multipliers=7
num_parameters=0
num_slacks=7
num_states=26
objective=0.427618
objective_accelerations=0.054445
objective_balance=0.001143
objective_effort=0.014208
objective_height=0.353105
objective_ligament=0.004717
solver_duration=682.631245
status=Solve_Succeeded
success=true
DataType=double
version=3
OpenSimVersion=4.5
endheader
time	/jointset/ground_pelvis/pelvis_tilt/value	/jointset/ground_pelvis/pelvis_tx/value	/jointset/ground_pelvis/pelvis_ty/value	/jointset/hip_l/hip_flexion_l/value	/jointset/hip_l/hip_adduction_l/value	/jointset/hip_l/hip_rotation_l/value	/jointset/back/lumbar_extension/value	/jointset/patellofemoral_l/patellar_flexion_l/value	/jointset/knee_l/knee_flexion_l/value	/jointset/knee_l/knee_adduction_l/value	/jointset/knee_l/knee_rotation_l/value	/jointset/ankle_l/ankle_angle_l/value	/jointset/subtalar_l/subtalar_angle_l/value	/jointset/ground_pelvis/pelvis_tilt/speed	/jointset/ground_pelvis/pelvis_tx/speed	/jointset/ground_pelvis/pelvis_ty/speed	/jointset/hip_l/hip_flexion_l/speed	/jointset/hip_l/hip_adduction_l/speed	/jointset/hip_l/hip_rotation_l/speed	/jointset/back/lumbar_extension/speed	/jointset/patellofemoral_l/patellar_flexion_l/speed	/jointset/knee_l/knee_flexion_l/speed	/jointset/knee_l/knee_adduction_l/speed	/jointset/knee_l/knee_rotation_l/speed	/jointset/ankle_l/ankle_angle_l/speed	/jointset/subtalar_l/subtalar_angle_l/speed	/forceset/tau_hip_flexion_l	/forceset/tau_hip_adduction_l	/forceset/tau_hip_rotation_l	/forceset/tau_knee_flexion_l	/forceset/tau_ankle_angle_l	/forceset/tau_subtalar_angle_l	/forceset/tau_lumbar_extension	lambda_cid13_p0	lambda_cid13_p1	lambda_cid13_p2	lambda_cid13_p3	lambda_cid13_p4	lambda_cid13_p5	lambda_cid14_p0	/jointset/ground_pelvis/pelvis_tilt/accel	/jointset/ground_pelvis/pelvis_tx/accel	/jointset/ground_pelvis/pelvis_ty/accel	/jointset/hip_l/hip_flexion_l/accel	/jointset/hip_l/hip_adduction_l/accel	/jointset/hip_l/hip_rotation_l/accel	/jointset/back/lumbar_extension/accel	/jointset/patellofemoral_l/patellar_flexion_l/accel	/jointset/knee_l/knee_flexion_l/accel	/jointset/knee_l/knee_adduction_l/accel	/jointset/knee_l/knee_rotation_l/accel	/jointset/ankle_l/ankle_angle_l/accel	/jointset/subtalar_l/subtalar_angle_l/accel	gamma_cid13_p0	gamma_cid13_p1	gamma_cid13_p2	gamma_cid13_p3	gamma_cid13_p4	gamma_cid13_p5	gamma_cid14_p0
0	0.04867819757787997	0.1078105232768414	0.9028760601171262	0.1266922784136757	-0.3700004035362763	-0.2209019620569922	-0.2144969558742783	0.2051545070141872	0.2051545070141877	-0.1745200745546922	-0.1562652874733378	0.09024313228550125	0.07901846191996739	0	0	0	0	0	0	0	0	0	0	0	0	0	0.1094037296840053	-0.03639204686425938	-0.00864121226276101	-0.2437355754263296	0.1871171392600596	-0.105318673667175	-0.04320433442941233	28.28771966853732	42.0386657924727	-8.412912209470992	-20.18178529693954	-439.6991622866817	-31.32686307546269	-26.11394595283152	-2.931812794633684	-0.9177624585888735	-0.8003218161475477	10.49492143021739	-0.2093347808498528	3.042775809091455	-3.343466138788118	10.18015125309625	10.18015125309611	2.028141003600524	-0.9436098865357557	3.523094840078436	0.7933997887174856	1.019729910214089e-09	5.134773767127849e-07	-6.118642724080528e-08	3.731179968618888e-08	3.213663606160133e-08	1.807086827573661e-07	5.750196295471461e-08
0.01	0.0485377120276988	0.1077655555499621	0.9028372355598243	0.1272022063281643	-0.370009681284696	-0.2207435177644047	-0.2146691807969664	0.2056501826470375	0.2056501826470489	-0.1744200387313343	-0.1563009817247409	0.09041547307322838	0.07905819551698925	-0.0280930305696971	-0.008927526164965291	-0.007742654359310462	0.1015906441527813	-0.001820090691223127	0.03151936769691843	-0.03431882791267501	0.09861509096362922	0.09861509096362868	0.0199423870029909	-0.007081110577729043	0.03430110790850634	0.00793835574088793	0.1096412854391135	-0.04516095794114994	-0.008694087476460655	-0.2454346447763192	0.1871934712056608	-0.0974694114852528	-0.04310604089252695	28.73190635787783	38.53597285399809	-7.836227580993229	-20.92679554638443	-440.568502418748	-38.86835847140028	-26.11415924321152	-2.747438951101814	-0.8703373511971643	-0.7578922533715206	9.931892223552607	-0.1630972886061752	3.181119209416365	-3.457167623871006	9.624171176381742	9.624171176381783	1.967651592293282	-0.5817230145310297	3.358575406646723	0.7927254529861553	-1.277388165758202e-08	7.485411930002014e-07	-8.313579774095878e-08	7.670211939621585e-08	-1.54288996488376e-07	2.428164053748923e-07	9.108125680211408e-08
0.02	0.04811641801922956	0.1076332946302841	0.9027216534574189	0.1287161919473393	-0.3700361101550925	-0.2202749594029649	-0.2151808093000531	0.207116405821217	0.2071164058212158	-0.1741225062291464	-0.1564057593561153	0.0909258162681245	0.07917704706866197	-0.05616169165794666	-0.01745863855973462	-0.01535150902070194	0.2008115409353353	-0.003430224396351374	0.06202281377081398	-0.06788071607991369	0.1941095082626765	0.194109508262676	0.0394993357517724	-0.01381667600103964	0.06760048143341071	0.01582359093023946	0.1098788411942833	-0.05392986901805528	-0.008746962690309622	-0.2471337141263004	0.1872698031512431	-0.08962014930335005	-0.04300774735556782	29.22086718752201	35.04018117143261	-7.277483674710997	-21.73350404278082	-440.6348517576807	-46.23691527943465	-26.11452581957078	-2.926938898344243	-0.8384797045495882	-0.7735618765637637	10.02097195617188	-0.1673433836309823	2.83959148448691	-3.192078189700883	9.556016520179847	9.556016520179831	1.951053352758444	-0.8745008556520762	3.322747963358133	0.7827756784101192	-2.656749322537814e-08	9.836050092876179e-07	-1.050851682411123e-07	1.160924391062428e-07	-3.407146290383533e-07	3.049241279924183e-07	1.246605506495136e-07
0.03	0.04741549591432138	0.1074171354786995	0.9025303495291706	0.1312111680734048	-0.3700780647318467	-0.2195071477218976	-0.2160221143337071	0.2095238299778345	0.2095238299778394	-0.1736319922889419	-0.1565775789198753	0.09176417734056144	0.0793740160732249	-0.08388505449747241	-0.02576255396475871	-0.02291053789543335	0.2977771391176444	-0.004976702889404763	0.0914689713076816	-0.1000798597219578	0.2869679122108169	0.2869679122108179	0.05843799184646106	-0.02044745161874706	0.09988942039556271	0.02350255295148435	0.1053671334534162	-0.04902609599776988	-0.007628383455474253	-0.2410764204154699	0.1790272559239665	-0.09079206349103681	-0.03967667755838958	26.49946147892511	35.81374034988102	-7.158766612491714	-19.76994807234044	-440.4824046545507	-43.7800947191397	-26.11468451227589	-2.67437779561082	-0.8247284117422304	-0.7473314790783684	9.47337143279813	-0.1508302257896479	2.986591359793812	-3.188767812211838	9.089615636665616	9.089615636665835	1.84060832427616	-0.5424383471921292	3.15464635728346	0.7501657197910424	-3.633733666378874e-08	1.139882218634617e-06	-6.279123363835006e-08	1.367179074095023e-07	-4.519332505752375e-07	2.907538136468227e-07	1.403805435673586e-07
0.04	0.04644147161724929	0.1071182609824122	0.9022634036949438	0.1346636037180043	-0.3701359901222573	-0.2184469817711627	-0.2171763978759331	0.2128476108348511	0.2128476108348496	-0.1729570244704964	-0.1568127207262609	0.092919963701547	0.07964571654916176	-0.1107821300911591	-0.03400170750026945	-0.03047989021634648	0.3923034446414604	-0.006624387128345981	0.1204936677048382	-0.1304764177942394	0.3773808483403355	0.3773808483403372	0.07639011139923266	-0.02648112453093584	0.1310855391433041	0.03076988520510217	0.1008554257125561	-0.04412232297747403	-0.006509804220762876	-0.2350191267046267	0.1707847086966891	-0.09196397767871069	-0.03634560776120139	23.81900301608652	36.59645220643431	-7.060154647590176	-17.8589368061229	-439.5871592606386	-41.15423278461241	-26.11390338333109	-2.761681449176471	-0.8255273306468341	-0.7756265658001156	9.533113424473225	-0.1875845328086143	2.755299256544733	-2.831561075748406	9.066922956455489	9.066922956455334	1.75374604437491	-0.7550803145483479	3.104183920476099	0.7004497248846614	-4.60242158108718e-08	1.294534961859133e-06	-1.917269480666173e-08	1.569564715600449e-07	-5.616012120912333e-07	2.750107562710597e-07	1.557323034763469e-07
0.05	0.04520188780365942	0.1067373930941504	0.9019206075799471	0.1390495411537198	-0.3702101209093899	-0.217100878574688	-0.2186263084867386	0.217062867520735	0.2170628675207336	-0.1721061043918918	-0.157106633134603	0.09438207273838681	0.07998886906880656	-0.137020167114948	-0.04215179846066422	-0.03808295120281768	0.4844324516879795	-0.008137182696688816	0.1485384833418389	-0.1593232043211417	0.4651479345220008	0.465147934522001	0.09375186178071865	-0.03221893022952075	0.1611176306495971	0.03787286337771102	0.09754375277619055	-0.04228291281582577	-0.005617069228392365	-0.2316917372860686	0.1652234407501967	-0.09087423845674129	-0.03389571524215976	22.10272156778833	36.31634848249419	-6.892891240807828	-16.69319318061253	-439.2471201671759	-41.00197406258799	-26.11135007164332	-2.537686372311817	-0.8067076699684401	-0.7533018345087105	8.985054221841617	-0.1236292383652104	2.800843279606358	-2.883862434413059	8.553187031327495	8.553187031327377	1.721303186399539	-0.4707992779889489	2.91996286245619	0.7168569998205575	-4.615607429117329e-08	1.331810215888693e-06	-7.385344306217099e-08	1.675886553251326e-07	-6.288073736028687e-07	3.288920115023045e-07	1.691648196489262e-07
0.06	0.04370335931116805	0.1062756327580383	0.9015016496611973	0.1443432206353261	-0.3702974800861062	-0.2154799731093804	-0.2203592119614636	0.2221401121848968	0.2221401121848953	-0.1710827840792031	-0.1574554573160207	0.09613795090963918	0.0804033783974514	-0.1625710658720038	-0.05018019707031596	-0.04571225096693222	0.5738518538185133	-0.009270065045758412	0.1754541214719875	-0.1870749905781311	0.549778443995884	0.5497784439958835	0.1108701582167681	-0.03746347914711966	0.189839366025902	0.04504124700518043	0.09423207983985116	-0.04044350265416954	-0.004724334236043838	-0.2283643478675053	0.1596621728037037	-0.08978449923476312	-0.03144582272309474	20.423724518353	36.04362296209773	-6.742690436504509	-15.57288873484951	-438.2331927985171	-40.6953606284349	-26.10586265458843	-2.624253795829867	-0.8011888604981531	-0.7808743213287915	8.991192441276123	-0.1116018889540226	2.529463755174326	-2.612561021765822	8.439607614899096	8.439607614899087	1.705055255287494	-0.6564289583511482	2.842112694478566	0.7135308158567359	-4.588561611182082e-08	1.364143259846886e-06	-1.326731086687201e-07	1.778163599160958e-07	-6.942256698511627e-07	3.85704816738055e-07	1.825165255589198e-07
0.07000000000000001	0.04195186490532691	0.1057343364795237	0.9010059266678445	0.1505193038867724	-0.3703948385403908	-0.2135961786026774	-0.2223626471402325	0.228049908372531	0.2280499083725391	-0.1698902664019823	-0.1578556946537638	0.09817529819930305	0.08088955154088434	-0.1876423099450363	-0.05804213048130996	-0.05346097161948148	0.6609707705350367	-0.01019517358242135	0.2011994708903544	-0.213340052568368	0.631745500296418	0.6317455002964186	0.1274804308570569	-0.04247168656868403	0.2174607952431331	0.05215816021663149	0.09046983471021365	-0.03844626874937163	-0.003719250662019393	-0.2251277422209417	0.154309171787091	-0.08859884714994119	-0.02866140531412959	18.81976772596489	35.73131354452203	-6.603550948481003	-14.64252250848137	-437.2672650265546	-40.38805125805412	-26.09627873462894	-2.435719898239672	-0.7731206712669709	-0.7763041627001696	8.513139149279686	-0.08217277623228716	2.581338218117742	-2.592679896648095	8.009923987247173	8.009923987247369	1.61628794489261	-0.4062235417705482	2.696801245921161	0.7052908676898889	-4.489343511543943e-08	1.263469409409567e-06	-1.518594449012571e-07	1.724413217107768e-07	-7.115154396839158e-07	3.787243998439025e-07	1.754702135484514e-07
